<svg xmlns="http://www.w3.org/2000/svg" width="51" height="51" viewBox="0 0 51 51">
  <path fill="currentColor" fill-rule="evenodd" d="M42.7497684,7.67766953 C52.5128757,17.4407768 52.5128757,33.2699013 42.7497684,43.0330086 C34.0680747,51.7147023 20.5897486,52.6763328 10.845454,45.9179 L4.55862236,47.0273845 C4.44365369,47.0476731 4.32602036,47.0476731 4.21105169,47.0273845 C3.70601939,46.9382612 3.35686774,46.4846411 3.38641178,45.9848314 L3.40005347,45.8688156 L4.509538,39.581984 C-2.2488948,29.8376893 -1.28726433,16.3593633 7.39442939,7.67766953 C17.1575367,-2.08543776 32.9866612,-2.08543776 42.7497684,7.67766953 Z M38.6508368,30.6245807 C36.9573802,29.2855657 35.2139976,28.6469044 34.7568364,29.1980529 C34.3943683,29.6351891 34.9496585,30.6893248 36.0404975,31.7752329 C32.8327136,35.2812283 29.0066487,37.0165892 24.5067987,37.0165892 C20.2209838,37.0165892 16.5463813,35.4423869 13.4359649,32.2625783 C14.8634248,31.0189091 15.659911,29.7006568 15.2431579,29.1980529 C14.7859966,28.6469044 13.0426141,29.2855657 11.3491575,30.6245807 C9.65570088,31.9635956 8.65344781,33.4959065 9.11051608,34.0471304 C9.46199254,34.4708665 10.5737415,34.1913179 11.83851,33.4308981 C15.3539617,37.1327488 19.5938508,39 24.5067987,39 C29.7255744,39 34.1848884,36.8930428 37.8231573,32.7182653 L37.5459352,33.0305194 C39.0515879,34.0840355 40.481845,34.5385684 40.8894782,34.0471304 C41.3465464,33.4959065 40.3442934,31.9635956 38.6508368,30.6245807 Z M16,17 C14.3431458,17 13,18.3431458 13,20 C13,21.6568542 14.3431458,23 16,23 C17.6568542,23 19,21.6568542 19,20 C19,18.3431458 17.6568542,17 16,17 Z M25,17 C23.3431458,17 22,18.3431458 22,20 C22,21.6568542 23.3431458,23 25,23 C26.6568542,23 28,21.6568542 28,20 C28,18.3431458 26.6568542,17 25,17 Z M34,17 C32.3431458,17 31,18.3431458 31,20 C31,21.6568542 32.3431458,23 34,23 C35.6568542,23 37,21.6568542 37,20 C37,18.3431458 35.6568542,17 34,17 Z"/>
</svg>
