<svg xmlns="http://www.w3.org/2000/svg" width="163" height="51" viewBox="0 0 163 51">
  <g fill="none" fill-rule="evenodd">
    <path fill="#4A61E3" d="M23.213719,-0.414427112 C37.0208377,-0.414427112 48.213719,10.7784541 48.213719,24.5855729 C48.213719,36.8633419 39.3630786,47.0739331 27.6938882,49.1852562 L24.0329509,54.4152416 C23.966002,54.5108829 23.8828227,54.5940622 23.7871813,54.6610111 C23.334732,54.9777257 22.7112016,54.8676909 22.3944871,54.4152416 L22.3944871,54.4152416 L18.7335498,49.1852562 C7.06435934,47.0739331 -1.78628101,36.8633419 -1.78628101,24.5855729 C-1.78628101,10.7784541 9.40660024,-0.414427112 23.213719,-0.414427112 Z" transform="rotate(45 23.214 27.214)"/>
    <path fill="#FFF" fill-rule="nonzero" d="M38.6508368,30.6245807 C40.3442934,31.9635956 41.3465464,33.4959065 40.8894782,34.0471304 C40.481845,34.5385684 39.0515879,34.0840355 37.5459352,33.0305194 L37.8231573,32.7182653 C34.1848884,36.8930428 29.7255744,39 24.5067987,39 C19.5938508,39 15.3539617,37.1327488 11.83851,33.4308981 C10.5737415,34.1913179 9.46199254,34.4708665 9.11051608,34.0471304 C8.65344781,33.4959065 9.65570088,31.9635956 11.3491575,30.6245807 C13.0426141,29.2855657 14.7859966,28.6469044 15.2431579,29.1980529 C15.659911,29.7006568 14.8634248,31.0189091 13.4359649,32.2625783 C16.5463813,35.4423869 20.2209838,37.0165892 24.5067987,37.0165892 C29.0066487,37.0165892 32.8327136,35.2812283 36.0404975,31.7752329 C34.9496585,30.6893248 34.3943683,29.6351891 34.7568364,29.1980529 C35.2139976,28.6469044 36.9573802,29.2855657 38.6508368,30.6245807 Z"/>
    <path fill="#4A61E3" fill-rule="nonzero" d="M64.712,33.7553391 C64.872,33.7553391 65.008,33.6993391 65.12,33.5873391 C65.232,33.4753391 65.288,33.3393391 65.288,33.1793391 L65.288,33.1793391 L65.288,26.6033391 C65.288,25.8513391 65.504,25.2593391 65.936,24.8273391 C66.368,24.3953391 66.96,24.1793391 67.712,24.1793391 L67.712,24.1793391 L69.608,24.1793391 C69.784,24.1793391 69.924,24.1233391 70.028,24.0113391 C70.132,23.8993391 70.184,23.7633391 70.184,23.6033391 L70.184,23.6033391 L70.184,21.8513391 C70.184,21.6753391 70.132,21.5353391 70.028,21.4313391 C69.924,21.3273391 69.784,21.2753391 69.608,21.2753391 L69.608,21.2753391 L68.6,21.2753391 C67.096,21.2753391 65.944,21.8033391 65.144,22.8593391 L65.144,22.8593391 L65.144,21.8753391 C65.144,21.6993391 65.088,21.5553391 64.976,21.4433391 C64.864,21.3313391 64.72,21.2753391 64.544,21.2753391 L64.544,21.2753391 L62.576,21.2753391 C62.416,21.2753391 62.28,21.3313391 62.168,21.4433391 C62.056,21.5553391 62,21.6993391 62,21.8753391 L62,21.8753391 L62,33.1793391 C62,33.3393391 62.056,33.4753391 62.168,33.5873391 C62.28,33.6993391 62.416,33.7553391 62.576,33.7553391 L62.576,33.7553391 L64.712,33.7553391 Z M77.456,33.9953391 C78.576,33.9953391 79.56,33.8033391 80.408,33.4193391 C81.256,33.0353391 81.908,32.5833391 82.364,32.0633391 C82.82,31.5433391 83.048,31.0913391 83.048,30.7073391 C83.048,30.5633391 82.996,30.4513391 82.892,30.3713391 C82.788,30.2913391 82.664,30.2513391 82.52,30.2513391 L82.52,30.2513391 L80.408,30.2513391 C80.216,30.2513391 80.08,30.2713391 80,30.3113391 C79.92,30.3513391 79.808,30.4593391 79.664,30.6353391 C79.088,31.3713391 78.344,31.7393391 77.432,31.7393391 C76.632,31.7393391 76.004,31.4473391 75.548,30.8633391 C75.092,30.2793391 74.848,29.5393391 74.816,28.6433391 L74.816,28.6433391 L74.816,28.4513391 L82.784,28.4513391 C82.96,28.4513391 83.104,28.3953391 83.216,28.2833391 C83.328,28.1713391 83.384,28.0353391 83.384,27.8753391 L83.384,27.8753391 L83.384,27.3713391 C83.384,25.4513391 82.868,23.9153391 81.836,22.7633391 C80.804,21.6113391 79.336,21.0353391 77.432,21.0353391 C75.576,21.0353391 74.124,21.6113391 73.076,22.7633391 C72.028,23.9153391 71.504,25.4913391 71.504,27.4913391 L71.504,27.4913391 L71.528,28.0913391 C71.592,29.9793391 72.148,31.4353391 73.196,32.4593391 C74.244,33.4833391 75.664,33.9953391 77.456,33.9953391 Z M80.072,26.4113391 L74.816,26.4113391 L74.816,26.3633391 C74.816,25.4193391 75.048,24.6633391 75.512,24.0953391 C75.976,23.5273391 76.616,23.2433391 77.432,23.2433391 C78.248,23.2433391 78.892,23.5273391 79.364,24.0953391 C79.836,24.6633391 80.072,25.4193391 80.072,26.3633391 L80.072,26.3633391 L80.072,26.4113391 Z M93.56,33.7553391 C93.736,33.7553391 93.876,33.6993391 93.98,33.5873391 C94.084,33.4753391 94.136,33.3393391 94.136,33.1793391 L94.136,33.1793391 L94.136,31.6673391 C94.136,31.4913391 94.084,31.3513391 93.98,31.2473391 C93.876,31.1433391 93.736,31.0913391 93.56,31.0913391 L93.56,31.0913391 L91.88,31.0913391 C91.336,31.0913391 90.944,30.9153391 90.704,30.5633391 C90.464,30.2113391 90.344,29.6913391 90.344,29.0033391 L90.344,29.0033391 L90.344,23.8433391 L93.344,23.8433391 C93.504,23.8433391 93.64,23.7873391 93.752,23.6753391 C93.864,23.5633391 93.92,23.4273391 93.92,23.2673391 L93.92,23.2673391 L93.92,21.8513391 C93.92,21.6913391 93.864,21.5553391 93.752,21.4433391 C93.64,21.3313391 93.504,21.2753391 93.344,21.2753391 L93.344,21.2753391 L90.344,21.2753391 L90.344,17.2913391 C90.344,17.1153391 90.292,16.9753391 90.188,16.8713391 C90.084,16.7673391 89.944,16.7153391 89.768,16.7153391 L89.768,16.7153391 L87.776,16.7153391 C87.616,16.7153391 87.48,16.7673391 87.368,16.8713391 C87.256,16.9753391 87.2,17.1153391 87.2,17.2913391 L87.2,17.2913391 L87.2,21.2753391 L85.304,21.2753391 C85.144,21.2753391 85.008,21.3313391 84.896,21.4433391 C84.784,21.5553391 84.728,21.6913391 84.728,21.8513391 L84.728,21.8513391 L84.728,23.2673391 C84.728,23.4273391 84.784,23.5633391 84.896,23.6753391 C85.008,23.7873391 85.144,23.8433391 85.304,23.8433391 L85.304,23.8433391 L87.2,23.8433391 L87.2,29.2673391 C87.2,30.7393391 87.568,31.8553391 88.304,32.6153391 C89.04,33.3753391 90.136,33.7553391 91.592,33.7553391 L91.592,33.7553391 L93.56,33.7553391 Z M98.984,33.7553391 C99.144,33.7553391 99.28,33.6993391 99.392,33.5873391 C99.504,33.4753391 99.56,33.3393391 99.56,33.1793391 L99.56,33.1793391 L99.56,26.6033391 C99.56,25.8513391 99.776,25.2593391 100.208,24.8273391 C100.64,24.3953391 101.232,24.1793391 101.984,24.1793391 L101.984,24.1793391 L103.88,24.1793391 C104.056,24.1793391 104.196,24.1233391 104.3,24.0113391 C104.404,23.8993391 104.456,23.7633391 104.456,23.6033391 L104.456,23.6033391 L104.456,21.8513391 C104.456,21.6753391 104.404,21.5353391 104.3,21.4313391 C104.196,21.3273391 104.056,21.2753391 103.88,21.2753391 L103.88,21.2753391 L102.872,21.2753391 C101.368,21.2753391 100.216,21.8033391 99.416,22.8593391 L99.416,22.8593391 L99.416,21.8753391 C99.416,21.6993391 99.36,21.5553391 99.248,21.4433391 C99.136,21.3313391 98.992,21.2753391 98.816,21.2753391 L98.816,21.2753391 L96.848,21.2753391 C96.688,21.2753391 96.552,21.3313391 96.44,21.4433391 C96.328,21.5553391 96.272,21.6993391 96.272,21.8753391 L96.272,21.8753391 L96.272,33.1793391 C96.272,33.3393391 96.328,33.4753391 96.44,33.5873391 C96.552,33.6993391 96.688,33.7553391 96.848,33.7553391 L96.848,33.7553391 L98.984,33.7553391 Z M111.872,33.9953391 C113.744,33.9953391 115.192,33.5153391 116.216,32.5553391 C117.24,31.5953391 117.792,30.2673391 117.872,28.5713391 C117.888,28.3793391 117.896,28.0273391 117.896,27.5153391 C117.896,27.0033391 117.888,26.6513391 117.872,26.4593391 C117.792,24.7793391 117.232,23.4553391 116.192,22.4873391 C115.152,21.5193391 113.712,21.0353391 111.872,21.0353391 C110.016,21.0353391 108.568,21.5193391 107.528,22.4873391 C106.488,23.4553391 105.928,24.7793391 105.848,26.4593391 L105.848,26.4593391 L105.824,27.5153391 L105.848,28.5713391 C105.928,30.2673391 106.48,31.5953391 107.504,32.5553391 C108.528,33.5153391 109.984,33.9953391 111.872,33.9953391 Z M111.872,31.5713391 C111.024,31.5713391 110.368,31.3073391 109.904,30.7793391 C109.44,30.2513391 109.192,29.4753391 109.16,28.4513391 L109.16,28.4513391 L109.136,27.5153391 L109.16,26.5793391 C109.192,25.5553391 109.44,24.7753391 109.904,24.2393391 C110.368,23.7033391 111.024,23.4353391 111.872,23.4353391 C112.704,23.4353391 113.352,23.7033391 113.816,24.2393391 C114.28,24.7753391 114.528,25.5553391 114.56,26.5793391 C114.576,26.7393391 114.584,27.0513391 114.584,27.5153391 C114.584,27.9793391 114.576,28.2913391 114.56,28.4513391 C114.528,29.4753391 114.284,30.2513391 113.828,30.7793391 C113.372,31.3073391 112.72,31.5713391 111.872,31.5713391 Z M128.192,33.7553391 C128.368,33.7553391 128.508,33.6993391 128.612,33.5873391 C128.716,33.4753391 128.768,33.3393391 128.768,33.1793391 L128.768,33.1793391 L128.768,31.6673391 C128.768,31.4913391 128.716,31.3513391 128.612,31.2473391 C128.508,31.1433391 128.368,31.0913391 128.192,31.0913391 L128.192,31.0913391 L126.512,31.0913391 C125.968,31.0913391 125.576,30.9153391 125.336,30.5633391 C125.096,30.2113391 124.976,29.6913391 124.976,29.0033391 L124.976,29.0033391 L124.976,23.8433391 L127.976,23.8433391 C128.136,23.8433391 128.272,23.7873391 128.384,23.6753391 C128.496,23.5633391 128.552,23.4273391 128.552,23.2673391 L128.552,23.2673391 L128.552,21.8513391 C128.552,21.6913391 128.496,21.5553391 128.384,21.4433391 C128.272,21.3313391 128.136,21.2753391 127.976,21.2753391 L127.976,21.2753391 L124.976,21.2753391 L124.976,17.2913391 C124.976,17.1153391 124.924,16.9753391 124.82,16.8713391 C124.716,16.7673391 124.576,16.7153391 124.4,16.7153391 L124.4,16.7153391 L122.408,16.7153391 C122.248,16.7153391 122.112,16.7673391 122,16.8713391 C121.888,16.9753391 121.832,17.1153391 121.832,17.2913391 L121.832,17.2913391 L121.832,21.2753391 L119.936,21.2753391 C119.776,21.2753391 119.64,21.3313391 119.528,21.4433391 C119.416,21.5553391 119.36,21.6913391 119.36,21.8513391 L119.36,21.8513391 L119.36,23.2673391 C119.36,23.4273391 119.416,23.5633391 119.528,23.6753391 C119.64,23.7873391 119.776,23.8433391 119.936,23.8433391 L119.936,23.8433391 L121.832,23.8433391 L121.832,29.2673391 C121.832,30.7393391 122.2,31.8553391 122.936,32.6153391 C123.672,33.3753391 124.768,33.7553391 126.224,33.7553391 L126.224,33.7553391 L128.192,33.7553391 Z M136.448,33.9953391 C138.32,33.9953391 139.768,33.5153391 140.792,32.5553391 C141.816,31.5953391 142.368,30.2673391 142.448,28.5713391 C142.464,28.3793391 142.472,28.0273391 142.472,27.5153391 L142.471625,27.3308391 C142.469875,26.9178391 142.462,26.6273391 142.448,26.4593391 C142.368,24.7793391 141.808,23.4553391 140.768,22.4873391 C139.728,21.5193391 138.288,21.0353391 136.448,21.0353391 C134.592,21.0353391 133.144,21.5193391 132.104,22.4873391 C131.064,23.4553391 130.504,24.7793391 130.424,26.4593391 L130.424,26.4593391 L130.4,27.5153391 L130.424,28.5713391 C130.504,30.2673391 131.056,31.5953391 132.08,32.5553391 C133.104,33.5153391 134.56,33.9953391 136.448,33.9953391 Z M136.448,31.5713391 C135.6,31.5713391 134.944,31.3073391 134.48,30.7793391 C134.016,30.2513391 133.768,29.4753391 133.736,28.4513391 L133.736,28.4513391 L133.712,27.5153391 L133.736,26.5793391 C133.768,25.5553391 134.016,24.7753391 134.48,24.2393391 C134.944,23.7033391 135.6,23.4353391 136.448,23.4353391 C137.28,23.4353391 137.928,23.7033391 138.392,24.2393391 C138.856,24.7753391 139.104,25.5553391 139.136,26.5793391 C139.152,26.7393391 139.16,27.0513391 139.16,27.5153391 C139.16,27.9793391 139.152,28.2913391 139.136,28.4513391 C139.104,29.4753391 138.86,30.2513391 138.404,30.7793391 C137.948,31.3073391 137.296,31.5713391 136.448,31.5713391 Z M150.68,33.9953391 C152.552,33.9953391 154,33.5153391 155.024,32.5553391 C156.048,31.5953391 156.6,30.2673391 156.68,28.5713391 C156.696,28.3793391 156.704,28.0273391 156.704,27.5153391 L156.703625,27.3308391 C156.701875,26.9178391 156.694,26.6273391 156.68,26.4593391 C156.6,24.7793391 156.04,23.4553391 155,22.4873391 C153.96,21.5193391 152.52,21.0353391 150.68,21.0353391 C148.824,21.0353391 147.376,21.5193391 146.336,22.4873391 C145.296,23.4553391 144.736,24.7793391 144.656,26.4593391 L144.656,26.4593391 L144.632,27.5153391 L144.656,28.5713391 C144.736,30.2673391 145.288,31.5953391 146.312,32.5553391 C147.336,33.5153391 148.792,33.9953391 150.68,33.9953391 Z M150.68,31.5713391 C149.832,31.5713391 149.176,31.3073391 148.712,30.7793391 C148.248,30.2513391 148,29.4753391 147.968,28.4513391 L147.968,28.4513391 L147.944,27.5153391 L147.968,26.5793391 C148,25.5553391 148.248,24.7753391 148.712,24.2393391 C149.176,23.7033391 149.832,23.4353391 150.68,23.4353391 C151.512,23.4353391 152.16,23.7033391 152.624,24.2393391 C153.088,24.7753391 153.336,25.5553391 153.368,26.5793391 C153.384,26.7393391 153.392,27.0513391 153.392,27.5153391 C153.392,27.9793391 153.384,28.2913391 153.368,28.4513391 C153.336,29.4753391 153.092,30.2513391 152.636,30.7793391 C152.18,31.3073391 151.528,31.5713391 150.68,31.5713391 Z M161.984,33.7553391 C162.16,33.7553391 162.3,33.6993391 162.404,33.5873391 C162.508,33.4753391 162.56,33.3393391 162.56,33.1793391 L162.56,33.1793391 L162.56,17.2913391 C162.56,17.1153391 162.508,16.9753391 162.404,16.8713391 C162.3,16.7673391 162.16,16.7153391 161.984,16.7153391 L161.984,16.7153391 L159.968,16.7153391 C159.808,16.7153391 159.672,16.7673391 159.56,16.8713391 C159.448,16.9753391 159.392,17.1153391 159.392,17.2913391 L159.392,17.2913391 L159.392,33.1793391 C159.392,33.3393391 159.448,33.4753391 159.56,33.5873391 C159.672,33.6993391 159.808,33.7553391 159.968,33.7553391 L159.968,33.7553391 L161.984,33.7553391 Z"/>
    <circle cx="16" cy="20" r="3" fill="#FFF"/>
    <circle cx="25" cy="20" r="3" fill="#FFF"/>
    <circle cx="34" cy="20" r="3" fill="#FFF"/>
  </g>
</svg>
